{
	"patcher" : 	{
		"fileversion" : 1,
		"appversion" : 		{
			"major" : 7,
			"minor" : 2,
			"revision" : 1,
			"architecture" : "x86",
			"modernui" : 1
		}
,
		"rect" : [ 59.0, 104.0, 422.0, 587.0 ],
		"bglocked" : 0,
		"openinpresentation" : 0,
		"default_fontsize" : 12.0,
		"default_fontface" : 0,
		"default_fontname" : "Arial",
		"gridonopen" : 1,
		"gridsize" : [ 15.0, 15.0 ],
		"gridsnaponopen" : 1,
		"objectsnaponopen" : 1,
		"statusbarvisible" : 2,
		"toolbarvisible" : 1,
		"lefttoolbarpinned" : 0,
		"toptoolbarpinned" : 0,
		"righttoolbarpinned" : 0,
		"bottomtoolbarpinned" : 0,
		"toolbars_unpinned_last_save" : 0,
		"tallnewobj" : 0,
		"boxanimatetime" : 200,
		"enablehscroll" : 1,
		"enablevscroll" : 1,
		"devicewidth" : 0.0,
		"description" : "",
		"digest" : "",
		"tags" : "",
		"style" : "",
		"subpatcher_template" : "",
		"boxes" : [ 			{
				"box" : 				{
					"id" : "obj-19",
					"linecount" : 4,
					"maxclass" : "comment",
					"numinlets" : 1,
					"numoutlets" : 0,
					"patching_rect" : [ 42.0, 207.0, 150.0, 60.0 ],
					"style" : "",
					"text" : "Need to set Min Max for each property - maybe a meny with each value will be perfect"
				}

			}
, 			{
				"box" : 				{
					"id" : "obj-14",
					"maxclass" : "number",
					"numinlets" : 1,
					"numoutlets" : 2,
					"outlettype" : [ "", "bang" ],
					"parameter_enable" : 0,
					"patching_rect" : [ 110.0, 338.5, 50.0, 22.0 ],
					"presentation_rect" : [ 110.0, 341.5, 0.0, 0.0 ],
					"style" : ""
				}

			}
, 			{
				"box" : 				{
					"id" : "obj-10",
					"maxclass" : "number",
					"numinlets" : 1,
					"numoutlets" : 2,
					"outlettype" : [ "", "bang" ],
					"parameter_enable" : 0,
					"patching_rect" : [ 105.0, 453.5, 50.0, 22.0 ],
					"presentation_rect" : [ 113.0, 455.5, 0.0, 0.0 ],
					"style" : ""
				}

			}
, 			{
				"box" : 				{
					"id" : "obj-1",
					"maxclass" : "number",
					"numinlets" : 1,
					"numoutlets" : 2,
					"outlettype" : [ "", "bang" ],
					"parameter_enable" : 0,
					"patching_rect" : [ 320.0, 463.5, 50.0, 22.0 ],
					"presentation_rect" : [ 320.0, 463.5, 0.0, 0.0 ],
					"style" : ""
				}

			}
, 			{
				"box" : 				{
					"id" : "obj-5",
					"maxclass" : "number",
					"numinlets" : 1,
					"numoutlets" : 2,
					"outlettype" : [ "", "bang" ],
					"parameter_enable" : 0,
					"patching_rect" : [ 320.0, 353.5, 50.0, 22.0 ],
					"presentation_rect" : [ 320.0, 353.5, 0.0, 0.0 ],
					"style" : ""
				}

			}
, 			{
				"box" : 				{
					"hidden" : 1,
					"id" : "obj-7",
					"maxclass" : "message",
					"numinlets" : 2,
					"numoutlets" : 1,
					"outlettype" : [ "" ],
					"patching_rect" : [ 36.0, 29.0, 50.0, 22.0 ],
					"style" : "",
					"text" : "set"
				}

			}
, 			{
				"box" : 				{
					"id" : "obj-26",
					"maxclass" : "number",
					"numinlets" : 1,
					"numoutlets" : 2,
					"outlettype" : [ "", "bang" ],
					"parameter_enable" : 0,
					"patching_rect" : [ 320.0, 120.5, 50.0, 22.0 ],
					"style" : ""
				}

			}
, 			{
				"box" : 				{
					"id" : "obj-27",
					"maxclass" : "button",
					"numinlets" : 1,
					"numoutlets" : 1,
					"outlettype" : [ "bang" ],
					"patching_rect" : [ 220.0, 194.5, 24.0, 24.0 ],
					"style" : ""
				}

			}
, 			{
				"box" : 				{
					"id" : "obj-28",
					"maxclass" : "message",
					"numinlets" : 2,
					"numoutlets" : 1,
					"outlettype" : [ "" ],
					"patching_rect" : [ 258.0, 196.5, 112.0, 22.0 ],
					"style" : ""
				}

			}
, 			{
				"box" : 				{
					"id" : "obj-29",
					"maxclass" : "button",
					"numinlets" : 1,
					"numoutlets" : 1,
					"outlettype" : [ "bang" ],
					"patching_rect" : [ 220.0, 120.5, 24.0, 24.0 ],
					"style" : ""
				}

			}
, 			{
				"box" : 				{
					"id" : "obj-30",
					"maxclass" : "newobj",
					"numinlets" : 2,
					"numoutlets" : 1,
					"outlettype" : [ "" ],
					"patching_rect" : [ 220.0, 157.0, 119.0, 22.0 ],
					"style" : "",
					"text" : "visca_param /AE"
				}

			}
, 			{
				"box" : 				{
					"id" : "obj-16",
					"maxclass" : "number",
					"numinlets" : 1,
					"numoutlets" : 2,
					"outlettype" : [ "", "bang" ],
					"parameter_enable" : 0,
					"patching_rect" : [ 320.0, 10.5, 50.0, 22.0 ],
					"style" : ""
				}

			}
, 			{
				"box" : 				{
					"id" : "obj-18",
					"maxclass" : "button",
					"numinlets" : 1,
					"numoutlets" : 1,
					"outlettype" : [ "bang" ],
					"patching_rect" : [ 220.0, 84.5, 24.0, 24.0 ],
					"style" : ""
				}

			}
, 			{
				"box" : 				{
					"id" : "obj-20",
					"maxclass" : "message",
					"numinlets" : 2,
					"numoutlets" : 1,
					"outlettype" : [ "" ],
					"patching_rect" : [ 258.0, 86.5, 112.0, 22.0 ],
					"style" : ""
				}

			}
, 			{
				"box" : 				{
					"id" : "obj-21",
					"maxclass" : "button",
					"numinlets" : 1,
					"numoutlets" : 1,
					"outlettype" : [ "bang" ],
					"patching_rect" : [ 220.0, 10.5, 24.0, 24.0 ],
					"style" : ""
				}

			}
, 			{
				"box" : 				{
					"id" : "obj-22",
					"maxclass" : "newobj",
					"numinlets" : 2,
					"numoutlets" : 1,
					"outlettype" : [ "" ],
					"patching_rect" : [ 220.0, 47.0, 119.0, 22.0 ],
					"style" : "",
					"text" : "visca_query /IR/auto"
				}

			}
, 			{
				"box" : 				{
					"fontsize" : 12.0,
					"id" : "obj-15",
					"maxclass" : "number",
					"numinlets" : 1,
					"numoutlets" : 2,
					"outlettype" : [ "", "bang" ],
					"parameter_enable" : 0,
					"patching_rect" : [ 320.0, 239.5, 50.0, 22.0 ],
					"style" : ""
				}

			}
, 			{
				"box" : 				{
					"id" : "obj-9",
					"maxclass" : "button",
					"numinlets" : 1,
					"numoutlets" : 1,
					"outlettype" : [ "bang" ],
					"patching_rect" : [ 23.0, 527.5, 24.0, 24.0 ],
					"style" : ""
				}

			}
, 			{
				"box" : 				{
					"fontsize" : 12.0,
					"id" : "obj-11",
					"maxclass" : "message",
					"numinlets" : 2,
					"numoutlets" : 1,
					"outlettype" : [ "" ],
					"patching_rect" : [ 61.0, 529.5, 112.0, 22.0 ],
					"style" : ""
				}

			}
, 			{
				"box" : 				{
					"id" : "obj-12",
					"maxclass" : "button",
					"numinlets" : 1,
					"numoutlets" : 1,
					"outlettype" : [ "bang" ],
					"patching_rect" : [ 23.0, 453.5, 24.0, 24.0 ],
					"style" : ""
				}

			}
, 			{
				"box" : 				{
					"fontsize" : 12.0,
					"id" : "obj-13",
					"maxclass" : "newobj",
					"numinlets" : 2,
					"numoutlets" : 1,
					"outlettype" : [ "" ],
					"patching_rect" : [ 23.0, 490.0, 101.0, 22.0 ],
					"style" : "",
					"text" : "visca_param /tilt"
				}

			}
, 			{
				"box" : 				{
					"id" : "obj-2",
					"maxclass" : "button",
					"numinlets" : 1,
					"numoutlets" : 1,
					"outlettype" : [ "bang" ],
					"patching_rect" : [ 220.0, 313.5, 24.0, 24.0 ],
					"style" : ""
				}

			}
, 			{
				"box" : 				{
					"fontsize" : 12.0,
					"id" : "obj-3",
					"maxclass" : "message",
					"numinlets" : 2,
					"numoutlets" : 1,
					"outlettype" : [ "" ],
					"patching_rect" : [ 258.0, 313.5, 112.0, 22.0 ],
					"style" : ""
				}

			}
, 			{
				"box" : 				{
					"id" : "obj-4",
					"maxclass" : "button",
					"numinlets" : 1,
					"numoutlets" : 1,
					"outlettype" : [ "bang" ],
					"patching_rect" : [ 220.0, 239.5, 24.0, 24.0 ],
					"style" : ""
				}

			}
, 			{
				"box" : 				{
					"fontsize" : 12.0,
					"id" : "obj-6",
					"maxclass" : "newobj",
					"numinlets" : 2,
					"numoutlets" : 1,
					"outlettype" : [ "" ],
					"patching_rect" : [ 220.0, 276.0, 119.0, 22.0 ],
					"style" : "",
					"text" : "visca_param /IR"
				}

			}
, 			{
				"box" : 				{
					"id" : "obj-266",
					"maxclass" : "button",
					"numinlets" : 1,
					"numoutlets" : 1,
					"outlettype" : [ "bang" ],
					"patching_rect" : [ 220.0, 534.5, 24.0, 24.0 ],
					"style" : ""
				}

			}
, 			{
				"box" : 				{
					"fontsize" : 12.0,
					"id" : "obj-267",
					"maxclass" : "message",
					"numinlets" : 2,
					"numoutlets" : 1,
					"outlettype" : [ "" ],
					"patching_rect" : [ 258.0, 536.5, 112.0, 22.0 ],
					"style" : ""
				}

			}
, 			{
				"box" : 				{
					"id" : "obj-268",
					"maxclass" : "button",
					"numinlets" : 1,
					"numoutlets" : 1,
					"outlettype" : [ "bang" ],
					"patching_rect" : [ 220.0, 460.5, 24.0, 24.0 ],
					"style" : ""
				}

			}
, 			{
				"box" : 				{
					"fontsize" : 12.0,
					"id" : "obj-269",
					"maxclass" : "newobj",
					"numinlets" : 2,
					"numoutlets" : 1,
					"outlettype" : [ "" ],
					"patching_rect" : [ 220.0, 497.0, 147.0, 22.0 ],
					"style" : "",
					"text" : "visca_param /slowshutter"
				}

			}
, 			{
				"box" : 				{
					"id" : "obj-259",
					"maxclass" : "button",
					"numinlets" : 1,
					"numoutlets" : 1,
					"outlettype" : [ "bang" ],
					"patching_rect" : [ 220.0, 419.5, 24.0, 24.0 ],
					"style" : ""
				}

			}
, 			{
				"box" : 				{
					"fontsize" : 12.0,
					"id" : "obj-260",
					"maxclass" : "message",
					"numinlets" : 2,
					"numoutlets" : 1,
					"outlettype" : [ "" ],
					"patching_rect" : [ 258.0, 419.5, 112.0, 22.0 ],
					"style" : ""
				}

			}
, 			{
				"box" : 				{
					"id" : "obj-261",
					"maxclass" : "button",
					"numinlets" : 1,
					"numoutlets" : 1,
					"outlettype" : [ "bang" ],
					"patching_rect" : [ 220.0, 345.5, 24.0, 24.0 ],
					"style" : ""
				}

			}
, 			{
				"box" : 				{
					"fontsize" : 12.0,
					"id" : "obj-262",
					"maxclass" : "newobj",
					"numinlets" : 2,
					"numoutlets" : 1,
					"outlettype" : [ "" ],
					"patching_rect" : [ 220.0, 382.0, 123.0, 22.0 ],
					"style" : "",
					"text" : "visca_param /shutter"
				}

			}
, 			{
				"box" : 				{
					"id" : "obj-230",
					"maxclass" : "button",
					"numinlets" : 1,
					"numoutlets" : 1,
					"outlettype" : [ "bang" ],
					"patching_rect" : [ 23.0, 410.5, 24.0, 24.0 ],
					"style" : ""
				}

			}
, 			{
				"box" : 				{
					"fontsize" : 12.0,
					"id" : "obj-228",
					"maxclass" : "message",
					"numinlets" : 2,
					"numoutlets" : 1,
					"outlettype" : [ "" ],
					"patching_rect" : [ 61.0, 412.5, 112.0, 22.0 ],
					"style" : ""
				}

			}
, 			{
				"box" : 				{
					"id" : "obj-226",
					"maxclass" : "button",
					"numinlets" : 1,
					"numoutlets" : 1,
					"outlettype" : [ "bang" ],
					"patching_rect" : [ 23.0, 336.5, 24.0, 24.0 ],
					"style" : ""
				}

			}
, 			{
				"box" : 				{
					"fontsize" : 12.0,
					"id" : "obj-224",
					"maxclass" : "newobj",
					"numinlets" : 2,
					"numoutlets" : 1,
					"outlettype" : [ "" ],
					"patching_rect" : [ 23.0, 373.0, 106.0, 22.0 ],
					"style" : "",
					"text" : "visca_param /pan"
				}

			}
, 			{
				"box" : 				{
					"color" : [ 1.0, 0.741176, 0.196078, 1.0 ],
					"fontsize" : 14.0,
					"id" : "obj-187",
					"maxclass" : "newobj",
					"numinlets" : 0,
					"numoutlets" : 0,
					"patcher" : 					{
						"fileversion" : 1,
						"appversion" : 						{
							"major" : 7,
							"minor" : 2,
							"revision" : 1,
							"architecture" : "x86",
							"modernui" : 1
						}
,
						"rect" : [ 334.0, 724.0, 199.0, 211.0 ],
						"bglocked" : 0,
						"openinpresentation" : 0,
						"default_fontsize" : 12.0,
						"default_fontface" : 0,
						"default_fontname" : "Arial",
						"gridonopen" : 1,
						"gridsize" : [ 15.0, 15.0 ],
						"gridsnaponopen" : 1,
						"objectsnaponopen" : 1,
						"statusbarvisible" : 2,
						"toolbarvisible" : 1,
						"lefttoolbarpinned" : 0,
						"toptoolbarpinned" : 0,
						"righttoolbarpinned" : 0,
						"bottomtoolbarpinned" : 0,
						"toolbars_unpinned_last_save" : 0,
						"tallnewobj" : 0,
						"boxanimatetime" : 200,
						"enablehscroll" : 1,
						"enablevscroll" : 1,
						"devicewidth" : 0.0,
						"description" : "",
						"digest" : "",
						"tags" : "",
						"style" : "",
						"subpatcher_template" : "",
						"boxes" : [ 							{
								"box" : 								{
									"id" : "obj-112",
									"maxclass" : "newobj",
									"numinlets" : 0,
									"numoutlets" : 1,
									"outlettype" : [ "" ],
									"patching_rect" : [ 19.0, 10.0, 167.0, 22.0 ],
									"style" : "",
									"text" : "r to_visca"
								}

							}
, 							{
								"box" : 								{
									"fontname" : "Arial",
									"fontsize" : 12.0,
									"id" : "obj-19",
									"maxclass" : "newobj",
									"numinlets" : 2,
									"numoutlets" : 2,
									"outlettype" : [ "", "int" ],
									"patching_rect" : [ 19.0, 37.0, 124.0, 22.0 ],
									"style" : "",
									"text" : "timebasedqueue 10"
								}

							}
, 							{
								"box" : 								{
									"id" : "obj-178",
									"maxclass" : "newobj",
									"numinlets" : 1,
									"numoutlets" : 0,
									"patching_rect" : [ 19.0, 144.5, 78.0, 22.0 ],
									"style" : "",
									"text" : "s from_visca"
								}

							}
, 							{
								"box" : 								{
									"id" : "obj-176",
									"maxclass" : "newobj",
									"numinlets" : 1,
									"numoutlets" : 1,
									"outlettype" : [ "" ],
									"patching_rect" : [ 19.0, 106.5, 107.0, 22.0 ],
									"style" : "",
									"text" : "udpreceive 33333"
								}

							}
, 							{
								"box" : 								{
									"id" : "obj-7",
									"maxclass" : "newobj",
									"numinlets" : 1,
									"numoutlets" : 0,
									"patching_rect" : [ 19.0, 64.5, 167.0, 22.0 ],
									"style" : "",
									"text" : "udpsend localhost 22222"
								}

							}
 ],
						"lines" : [ 							{
								"patchline" : 								{
									"destination" : [ "obj-19", 0 ],
									"disabled" : 0,
									"hidden" : 0,
									"source" : [ "obj-112", 0 ]
								}

							}
, 							{
								"patchline" : 								{
									"destination" : [ "obj-178", 0 ],
									"disabled" : 0,
									"hidden" : 0,
									"source" : [ "obj-176", 0 ]
								}

							}
, 							{
								"patchline" : 								{
									"destination" : [ "obj-7", 0 ],
									"disabled" : 0,
									"hidden" : 0,
									"source" : [ "obj-19", 0 ]
								}

							}
 ],
						"styles" : [ 							{
								"name" : "AudioStatus_Menu",
								"default" : 								{
									"bgfillcolor" : 									{
										"type" : "color",
										"color" : [ 0.294118, 0.313726, 0.337255, 1 ],
										"color1" : [ 0.454902, 0.462745, 0.482353, 0.0 ],
										"color2" : [ 0.290196, 0.309804, 0.301961, 1.0 ],
										"angle" : 270.0,
										"proportion" : 0.39,
										"autogradient" : 0
									}

								}
,
								"parentstyle" : "",
								"multi" : 0
							}
, 							{
								"name" : "jpatcher001",
								"parentstyle" : "",
								"multi" : 0
							}
 ]
					}
,
					"patching_rect" : [ 110.0, 29.0, 72.0, 24.0 ],
					"saved_object_attributes" : 					{
						"description" : "",
						"digest" : "",
						"globalpatchername" : "",
						"style" : "",
						"tags" : ""
					}
,
					"style" : "",
					"text" : "p network"
				}

			}
 ],
		"lines" : [ 			{
				"patchline" : 				{
					"destination" : [ "obj-269", 1 ],
					"disabled" : 0,
					"hidden" : 0,
					"source" : [ "obj-1", 0 ]
				}

			}
, 			{
				"patchline" : 				{
					"destination" : [ "obj-13", 1 ],
					"disabled" : 0,
					"hidden" : 0,
					"source" : [ "obj-10", 0 ]
				}

			}
, 			{
				"patchline" : 				{
					"destination" : [ "obj-13", 0 ],
					"disabled" : 0,
					"hidden" : 0,
					"source" : [ "obj-12", 0 ]
				}

			}
, 			{
				"patchline" : 				{
					"destination" : [ "obj-11", 1 ],
					"disabled" : 0,
					"hidden" : 0,
					"source" : [ "obj-13", 0 ]
				}

			}
, 			{
				"patchline" : 				{
					"destination" : [ "obj-9", 0 ],
					"disabled" : 0,
					"hidden" : 0,
					"source" : [ "obj-13", 0 ]
				}

			}
, 			{
				"patchline" : 				{
					"destination" : [ "obj-224", 1 ],
					"disabled" : 0,
					"hidden" : 0,
					"source" : [ "obj-14", 0 ]
				}

			}
, 			{
				"patchline" : 				{
					"destination" : [ "obj-6", 1 ],
					"disabled" : 0,
					"hidden" : 0,
					"source" : [ "obj-15", 0 ]
				}

			}
, 			{
				"patchline" : 				{
					"destination" : [ "obj-22", 1 ],
					"disabled" : 0,
					"hidden" : 0,
					"source" : [ "obj-16", 0 ]
				}

			}
, 			{
				"patchline" : 				{
					"destination" : [ "obj-22", 0 ],
					"disabled" : 0,
					"hidden" : 0,
					"source" : [ "obj-21", 0 ]
				}

			}
, 			{
				"patchline" : 				{
					"destination" : [ "obj-18", 0 ],
					"disabled" : 0,
					"hidden" : 0,
					"source" : [ "obj-22", 0 ]
				}

			}
, 			{
				"patchline" : 				{
					"destination" : [ "obj-20", 1 ],
					"disabled" : 0,
					"hidden" : 0,
					"source" : [ "obj-22", 0 ]
				}

			}
, 			{
				"patchline" : 				{
					"destination" : [ "obj-228", 1 ],
					"disabled" : 0,
					"hidden" : 0,
					"source" : [ "obj-224", 0 ]
				}

			}
, 			{
				"patchline" : 				{
					"destination" : [ "obj-230", 0 ],
					"disabled" : 0,
					"hidden" : 0,
					"source" : [ "obj-224", 0 ]
				}

			}
, 			{
				"patchline" : 				{
					"destination" : [ "obj-224", 0 ],
					"disabled" : 0,
					"hidden" : 0,
					"source" : [ "obj-226", 0 ]
				}

			}
, 			{
				"patchline" : 				{
					"destination" : [ "obj-30", 1 ],
					"disabled" : 0,
					"hidden" : 0,
					"source" : [ "obj-26", 0 ]
				}

			}
, 			{
				"patchline" : 				{
					"destination" : [ "obj-262", 0 ],
					"disabled" : 0,
					"hidden" : 0,
					"source" : [ "obj-261", 0 ]
				}

			}
, 			{
				"patchline" : 				{
					"destination" : [ "obj-259", 0 ],
					"disabled" : 0,
					"hidden" : 0,
					"source" : [ "obj-262", 0 ]
				}

			}
, 			{
				"patchline" : 				{
					"destination" : [ "obj-260", 1 ],
					"disabled" : 0,
					"hidden" : 0,
					"source" : [ "obj-262", 0 ]
				}

			}
, 			{
				"patchline" : 				{
					"destination" : [ "obj-269", 0 ],
					"disabled" : 0,
					"hidden" : 0,
					"source" : [ "obj-268", 0 ]
				}

			}
, 			{
				"patchline" : 				{
					"destination" : [ "obj-266", 0 ],
					"disabled" : 0,
					"hidden" : 0,
					"source" : [ "obj-269", 0 ]
				}

			}
, 			{
				"patchline" : 				{
					"destination" : [ "obj-267", 1 ],
					"disabled" : 0,
					"hidden" : 0,
					"source" : [ "obj-269", 0 ]
				}

			}
, 			{
				"patchline" : 				{
					"destination" : [ "obj-30", 0 ],
					"disabled" : 0,
					"hidden" : 0,
					"source" : [ "obj-29", 0 ]
				}

			}
, 			{
				"patchline" : 				{
					"destination" : [ "obj-27", 0 ],
					"disabled" : 0,
					"hidden" : 0,
					"source" : [ "obj-30", 0 ]
				}

			}
, 			{
				"patchline" : 				{
					"destination" : [ "obj-28", 1 ],
					"disabled" : 0,
					"hidden" : 0,
					"source" : [ "obj-30", 0 ]
				}

			}
, 			{
				"patchline" : 				{
					"destination" : [ "obj-6", 0 ],
					"disabled" : 0,
					"hidden" : 0,
					"source" : [ "obj-4", 0 ]
				}

			}
, 			{
				"patchline" : 				{
					"destination" : [ "obj-262", 1 ],
					"disabled" : 0,
					"hidden" : 0,
					"source" : [ "obj-5", 0 ]
				}

			}
, 			{
				"patchline" : 				{
					"destination" : [ "obj-2", 0 ],
					"disabled" : 0,
					"hidden" : 0,
					"source" : [ "obj-6", 0 ]
				}

			}
, 			{
				"patchline" : 				{
					"destination" : [ "obj-3", 1 ],
					"disabled" : 0,
					"hidden" : 0,
					"source" : [ "obj-6", 0 ]
				}

			}
, 			{
				"patchline" : 				{
					"destination" : [ "obj-11", 0 ],
					"disabled" : 0,
					"hidden" : 1,
					"source" : [ "obj-7", 0 ]
				}

			}
, 			{
				"patchline" : 				{
					"destination" : [ "obj-20", 0 ],
					"disabled" : 0,
					"hidden" : 1,
					"source" : [ "obj-7", 0 ]
				}

			}
, 			{
				"patchline" : 				{
					"destination" : [ "obj-228", 0 ],
					"disabled" : 0,
					"hidden" : 1,
					"midpoints" : [ 60.0, 435.0 ],
					"source" : [ "obj-7", 0 ]
				}

			}
, 			{
				"patchline" : 				{
					"destination" : [ "obj-260", 0 ],
					"disabled" : 0,
					"hidden" : 1,
					"source" : [ "obj-7", 0 ]
				}

			}
, 			{
				"patchline" : 				{
					"destination" : [ "obj-267", 0 ],
					"disabled" : 0,
					"hidden" : 1,
					"source" : [ "obj-7", 0 ]
				}

			}
, 			{
				"patchline" : 				{
					"destination" : [ "obj-28", 0 ],
					"disabled" : 0,
					"hidden" : 1,
					"source" : [ "obj-7", 0 ]
				}

			}
, 			{
				"patchline" : 				{
					"destination" : [ "obj-3", 0 ],
					"disabled" : 0,
					"hidden" : 1,
					"source" : [ "obj-7", 0 ]
				}

			}
 ],
		"dependency_cache" : [ 			{
				"name" : "timebasedqueue.maxpat",
				"bootpath" : "~/Documents/Max 7/Packages/Singularity/patchers/deuzair/max package/patchers/timing",
				"type" : "JSON",
				"implicit" : 1
			}
, 			{
				"name" : "visca_param.maxpat",
				"bootpath" : "~/Documents/GITs/viscam/max",
				"type" : "JSON",
				"implicit" : 1
			}
, 			{
				"name" : "visca_query.maxpat",
				"bootpath" : "~/Documents/GITs/larsen_2",
				"type" : "JSON",
				"implicit" : 1
			}
 ],
		"autosave" : 0,
		"styles" : [ 			{
				"name" : "AudioStatus_Menu",
				"default" : 				{
					"bgfillcolor" : 					{
						"type" : "color",
						"color" : [ 0.294118, 0.313726, 0.337255, 1 ],
						"color1" : [ 0.454902, 0.462745, 0.482353, 0.0 ],
						"color2" : [ 0.290196, 0.309804, 0.301961, 1.0 ],
						"angle" : 270.0,
						"proportion" : 0.39,
						"autogradient" : 0
					}

				}
,
				"parentstyle" : "",
				"multi" : 0
			}
, 			{
				"name" : "jpatcher001",
				"parentstyle" : "",
				"multi" : 0
			}
 ]
	}

}
